<svg viewBox="0 0 48 48" fill="none" xmlns="http://www.w3.org/2000/svg">
  <!-- Dark background -->
  <rect width="48" height="48" rx="10" fill="#0a0a0f"/>
  
  <!-- Interlocking flowing shape - First path -->
  <path
    d="M24 8
       C30 8 35 13 35 19
       C35 22 33.5 24.5 31 26.5
       L26 30
       C24.5 31 24.5 32.5 26 33.5
       L31 37
       C33.5 39 30.5 42 27.5 40.5
       L19 35
       C16 33.5 14 30.5 14 27
       C14 24 15.5 21.5 18 19.5
       L23 15.5
       C24.5 14.5 24.5 13 23 12
       L18 8.5
       C15.5 7 18.5 4 21 5.5
       L24 7.5"
    stroke="#ffffff"
    stroke-width="3"
    stroke-linecap="round"
    stroke-linejoin="round"
    fill="none"
  />
  
  <!-- Interlocking flowing shape - Second path (creates woven effect) -->
  <path
    d="M24 40
       C18 40 13 35 13 29
       C13 26 14.5 23.5 17 21.5
       L22 17.5
       C23.5 16.5 23.5 15 22 14
       L17 10.5
       C14.5 9 17.5 6 20.5 7.5
       L29 13
       C32 14.5 34 17.5 34 21
       C34 24 32.5 26.5 30 28.5
       L25 32.5
       C23.5 33.5 23.5 35 25 36
       L30 39.5
       C32.5 41 29.5 44 27 42.5
       L24 40.5"
    stroke="#22d3ee"
    stroke-width="3"
    stroke-linecap="round"
    stroke-linejoin="round"
    fill="none"
  />
</svg>
