<?xml version="1.0" encoding="UTF-8"?>
<svg version="1.1" xmlns="http://www.w3.org/2000/svg" width="1536" height="1024">
<path d="M0 0 C506.88 0 1013.76 0 1536 0 C1536 337.92 1536 675.84 1536 1024 C1029.12 1024 522.24 1024 0 1024 C0 686.08 0 348.16 0 0 Z " fill="#FDFDFD" transform="translate(0,0)"/>
<path d="M0 0 C1.00933594 -0.0103125 2.01867187 -0.020625 3.05859375 -0.03125 C13.53385652 1.55697267 22.96696467 7.7360479 32.1875 12.6875 C33.69195233 13.49049203 35.19667748 14.29297309 36.70166016 15.0949707 C39.80046119 16.74707757 42.89783828 18.40180893 45.99414062 20.05859375 C50.29855259 22.36071028 54.60893597 24.65140593 58.921875 26.9375 C76.16139026 36.07668293 93.37297388 45.26711068 110.5625 54.5 C111.67882812 55.09941406 112.79515625 55.69882813 113.9453125 56.31640625 C117.2766071 58.1057211 120.60714518 59.89643671 123.9375 61.6875 C125.00218506 62.25927979 126.06687012 62.83105957 127.16381836 63.42016602 C132.35837785 66.21490211 137.53776587 69.03276896 142.69140625 71.90234375 C143.67125488 72.44544189 144.65110352 72.98854004 145.66064453 73.5480957 C147.47666392 74.55666572 149.28920802 75.57153535 151.09716797 76.59448242 C156.20991769 79.42927931 161.27930474 81.54140569 166.79663086 83.45849609 C171.52773475 85.24002043 175.92426671 87.61705597 180.375 90 C181.37217041 90.52698486 182.36934082 91.05396973 183.39672852 91.59692383 C190.85156451 95.54982724 198.26096228 99.58570952 205.6574707 103.64648438 C213.91890099 108.17425093 222.23741729 112.59085382 230.5625 117 C240.48372553 122.25551195 250.3818041 127.54595162 260.22045898 132.95507812 C265.59055822 135.9004763 270.98657435 138.79211747 276.40234375 141.65234375 C277.42189148 142.19182396 277.42189148 142.19182396 278.46203613 142.74220276 C281.83037605 144.52451381 285.20112351 146.30191312 288.57666016 148.07055664 C289.81295523 148.7238757 291.0491264 149.3774293 292.28515625 150.03125 C293.37578369 150.60423828 294.46641113 151.17722656 295.59008789 151.76757812 C302.3992318 155.7361765 306.40986295 160.24234972 309.5625 167.5 C310.36557608 172.05739055 310.32426188 176.5018538 310.24365234 181.11962891 C310.24195622 182.46098758 310.24291707 183.80235181 310.24630737 185.14370728 C310.24801636 188.75506902 310.21294864 192.36521478 310.17086363 195.97629595 C310.1331435 199.76118192 310.12981464 203.5461013 310.12271118 207.33114624 C310.10412432 214.48510505 310.05497206 221.63850826 309.99461424 228.79222333 C309.92735594 236.94216092 309.8945118 245.09212621 309.86444163 253.24227262 C309.80186643 269.99517271 309.69645305 286.74751526 309.5625 303.5 C305.7921716 304.35804228 304.01988472 304.66935509 300.59692383 302.75952148 C299.85560715 302.35645279 299.11429047 301.95338409 298.35050964 301.5381012 C297.16573784 300.86762001 297.16573784 300.86762001 295.95703125 300.18359375 C294.24356467 299.2475032 292.52951795 298.31247391 290.81494141 297.37841797 C289.50375336 296.65631134 289.50375336 296.65631134 288.16607666 295.9196167 C284.17147604 293.74153535 280.12558144 291.66767912 276.07421875 289.59765625 C275.28278473 289.19153107 274.49135071 288.78540588 273.67593384 288.36697388 C271.20142325 287.09724701 268.72580081 285.82970903 266.25 284.5625 C265.3822998 284.11789429 264.51459961 283.67328857 263.62060547 283.21520996 C248.95847616 275.70496519 234.24609888 268.2986454 219.48706055 260.98071289 C211.63818623 257.08264 203.83683066 253.11642663 196.12219238 248.95770264 C189.40127326 245.35419301 182.56453719 241.9802086 175.73796463 238.58293152 C172.89793026 237.1691817 170.05946034 235.75230771 167.22100353 234.33539391 C165.0307306 233.24208348 162.84023638 232.14921745 160.64970398 231.056427 C154.93418257 228.20484595 149.21970217 225.35118065 143.50532055 222.49731636 C139.19996029 220.34724221 134.89422642 218.19792323 130.58764648 216.05029297 C97.1748714 199.38664219 97.1748714 199.38664219 85.09896851 192.94787598 C74.7970755 187.46722519 64.31977742 182.32617739 53.875 177.125 C51.7167017 176.04836786 49.55849812 174.97154581 47.40039062 173.89453125 C42.60091102 171.49970542 37.80100583 169.10574355 32.99868774 166.71661377 C31.40724799 165.92186077 29.81808232 165.12253313 28.23153687 164.3180542 C20.47894333 160.39228547 14.23657683 159.55308739 5.5625 160.5 C-2.65177062 163.27220005 -7.9143838 166.92101134 -12.125 174.5625 C-13.83867629 178.39787074 -14.56184604 181.55235063 -14.56778526 185.74201107 C-14.57322178 187.00857962 -14.57322178 187.00857962 -14.57876813 188.30073541 C-14.57769988 189.22339199 -14.57663163 190.14604856 -14.57553101 191.09666443 C-14.57835229 192.08069042 -14.58117357 193.06471641 -14.58408034 194.07856137 C-14.59243179 197.38498308 -14.59376505 200.69137133 -14.59521484 203.99780273 C-14.59988257 206.36463516 -14.60502606 208.73146668 -14.61061096 211.09829712 C-14.62189547 216.19963433 -14.63032786 221.30096569 -14.63673019 226.40231133 C-14.64705973 234.46501212 -14.66762357 242.52767177 -14.68984985 250.59034729 C-14.6973293 253.34907804 -14.70474305 256.10780897 -14.71213722 258.86653996 C-14.71491307 259.9006568 -14.71491307 259.9006568 -14.717745 260.95566488 C-14.73866791 268.80157533 -14.75749887 276.6474903 -14.77539062 284.4934082 C-14.77702881 285.2105728 -14.77866699 285.92773741 -14.78035481 286.66663427 C-14.80664985 298.2930432 -14.82528854 309.9194553 -14.84198253 321.54588138 C-14.85939865 333.48239055 -14.88823733 345.41883734 -14.9268719 357.35529667 C-14.94817592 364.05734342 -14.96382664 370.75931055 -14.96567917 377.46139336 C-14.96782097 383.76263866 -14.9836426 390.0636984 -15.01006889 396.36488724 C-15.01728058 398.68002488 -15.01935386 400.99518495 -15.01596642 403.31033134 C-15.01208613 406.4658929 -15.02647991 409.62085756 -15.04550171 412.77635193 C-15.03997201 413.69677778 -15.03444232 414.61720363 -15.02874506 415.56552118 C-15.07888012 420.36919725 -15.31253863 423.59756931 -18.4375 427.5 C-21.28755722 429.71671117 -24.38703673 429.9699926 -27.95043945 429.92700195 C-33.51475958 428.97166712 -38.33181081 425.68964213 -43.1875 422.9375 C-44.42243354 422.25431512 -45.65837587 421.5729509 -46.89526367 420.89331055 C-49.46526135 419.47924501 -52.03074649 418.05746021 -54.59326172 416.62988281 C-60.60768474 413.28720888 -66.68077127 410.05420201 -72.75 406.8125 C-73.91192871 406.18939941 -75.07385742 405.56629883 -76.27099609 404.92431641 C-84.53729509 400.49556861 -92.84346914 396.14822452 -101.16870117 391.83154297 C-107.34842021 388.61763897 -113.46522521 385.30467759 -119.5625 381.9375 C-130.38407831 375.97062155 -141.385585 370.36705306 -152.38989258 364.74768066 C-162.53790713 359.56300469 -172.62487424 354.30168744 -182.59765625 348.78515625 C-189.64679406 344.89672584 -196.78100259 341.18657435 -203.9375 337.5 C-212.3805986 333.14674195 -220.78779643 328.74065914 -229.125 324.1875 C-230.02138184 323.69830078 -230.91776367 323.20910156 -231.84130859 322.70507812 C-235.89901297 320.47932675 -239.93504198 318.22501918 -243.93359375 315.89453125 C-244.98703979 315.28508667 -244.98703979 315.28508667 -246.06176758 314.66333008 C-247.31884477 313.9323999 -248.57085372 313.19260851 -249.81518555 312.44018555 C-253.42918918 310.33811602 -256.97553823 308.95179492 -260.96875 307.703125 C-267.78302959 305.51727199 -274.06335504 302.50024307 -280.40332031 299.22900391 C-282.3216881 298.24528846 -284.25361807 297.29262245 -286.1875 296.33984375 C-294.23346209 292.27397544 -300.48954708 288.34385876 -303.4375 279.5 C-303.53257598 277.99305409 -303.57237407 276.482283 -303.57794189 274.97235107 C-303.58650711 273.58038261 -303.58650711 273.58038261 -303.59524536 272.16029358 C-303.59636322 271.14414474 -303.59748108 270.12799591 -303.59863281 269.08105469 C-303.60359772 268.00921432 -303.60856262 266.93737396 -303.61367798 265.83305359 C-303.62830912 262.27932091 -303.63510356 258.72563288 -303.640625 255.171875 C-303.6463761 252.70428465 -303.65213384 250.23669432 -303.65789795 247.769104 C-303.66841094 242.59069612 -303.67425152 237.41230378 -303.67773438 232.23388672 C-303.6832167 225.60159839 -303.70723811 218.96951561 -303.73570633 212.33729172 C-303.75434035 207.23803103 -303.75953875 202.13881975 -303.76107025 197.03952789 C-303.76409606 194.59472786 -303.77212215 192.14992868 -303.78525543 189.70516205 C-303.80232979 186.28212407 -303.80043187 182.85958685 -303.79394531 179.43652344 C-303.8031601 178.42847153 -303.81237488 177.42041962 -303.8218689 176.38182068 C-303.7718021 167.93786905 -301.68211145 161.87974403 -295.88720703 155.58007812 C-290.40477445 150.92487326 -283.76223071 147.96944043 -277.375 144.75 C-275.82664807 143.95317141 -274.27929203 143.15440486 -272.73291016 142.35375977 C-269.67931056 140.773617 -266.62244898 139.20010856 -263.56298828 137.63134766 C-258.42952217 134.99018161 -253.36447156 132.23086786 -248.3125 129.4375 C-238.792188 124.20494812 -229.20239736 119.10787139 -219.60394287 114.02072144 C-210.53127755 109.2119028 -201.47267752 104.37905234 -192.4375 99.5 C-182.83306683 94.31498178 -173.20436074 89.17743506 -163.5625 84.0625 C-149.98359874 76.85859945 -136.42697904 69.6143981 -122.88183594 62.34716797 C-119.38299604 60.47076999 -115.88312662 58.59630203 -112.3828125 56.72265625 C-83.42606301 41.22884438 -83.42606301 41.22884438 -54.5625 25.5625 C-46.54936395 21.18500168 -38.52529828 16.82801435 -30.48455811 12.50143433 C-29.26344319 11.84382304 -28.04292338 11.18510528 -26.82305908 10.525177 C-7.2231421 -0.07361164 -7.2231421 -0.07361164 0 0 Z " fill="#405F8C" transform="translate(765.4375,168.5)"/>
<path d="M0 0 C6.4133196 1.27623286 12.12952517 4.90376697 17.82421875 7.99951172 C19.27801128 8.77182039 20.73286691 9.54213088 22.1887207 10.31054688 C25.21807033 11.91151496 28.2426535 13.52100045 31.26416016 15.13671875 C37.7803015 18.61295488 44.34851956 21.9876147 50.91815186 25.36132812 C53.00847791 26.43534656 55.09741552 27.5120229 57.18603516 28.58935547 C65.87661963 33.06890071 74.60190948 37.47295892 83.35961914 41.82006836 C89.70129969 44.97617173 95.9682145 48.25743846 102.22216797 51.58325195 C110.46155024 55.94161752 118.8095875 60.08255108 127.16455078 64.21362305 C133.76848719 67.4905435 140.31063221 70.85985114 146.82421875 74.31201172 C157.40047928 79.91120847 168.1056187 85.24180349 178.82421875 90.56201172 C190.20850902 96.21263721 201.55603067 101.90732821 212.78417969 107.86303711 C221.71776641 112.58878856 230.77052699 117.07199798 239.82421875 121.56201172 C250.6114779 126.91175667 261.35025719 132.32778761 271.99098206 137.96417236 C279.35855955 141.86131927 286.79676552 145.60569848 294.26171875 149.31201172 C296.1435856 150.24916434 298.02515724 151.18690666 299.90660095 152.12490845 C301.12719175 152.73248239 302.34850079 153.33861585 303.5705719 153.94320679 C306.45818974 155.3730272 309.32939268 156.82599234 312.18530273 158.31835938 C313.22887939 158.86024902 314.27245605 159.40213867 315.34765625 159.96044922 C316.25821777 160.44175293 317.1687793 160.92305664 318.10693359 161.41894531 C324.73038279 164.20519771 331.17112116 163.74164154 337.7578125 161.10888672 C342.22415043 159.13802482 346.52031243 156.86102742 350.82421875 154.56201172 C352.3233761 153.78174472 353.82338273 153.0031074 355.32421875 152.22607422 C358.48138041 150.58327424 361.6284935 148.92292774 364.76953125 147.24951172 C370.10552142 144.40699443 375.46285866 141.60632279 380.82421875 138.81201172 C381.77474121 138.31620605 382.72526367 137.82040039 383.70458984 137.30957031 C392.48616611 132.73186276 401.28032283 128.17849353 410.07421875 123.62451172 C416.33757474 120.37843453 422.58915513 117.11204711 428.82421875 113.81201172 C437.82796934 109.05086082 446.88937045 104.40265958 455.94921875 99.74951172 C484.47983077 85.11869345 484.47983077 85.11869345 512.72314453 69.94384766 C519.99226355 65.9635473 527.36974629 62.23399055 534.796875 58.55883789 C541.3412205 55.31750176 547.82043937 51.97212558 554.2722168 48.55078125 C562.55801904 44.15986679 570.88933914 39.85725128 579.22338867 35.55883789 C580.3085376 34.997854 581.39368652 34.43687012 582.51171875 33.85888672 C583.56617188 33.31554687 584.620625 32.77220703 585.70703125 32.21240234 C589.69770159 30.09954743 593.59911125 27.8400359 597.484375 25.53955078 C600.20085308 24.40466157 601.09419572 24.73568807 603.82421875 25.56201172 C603.89438988 41.72180009 603.94724653 57.88153883 603.97965527 74.04144287 C603.99510512 81.54525861 604.01615847 89.04897952 604.05053711 96.55273438 C604.0804973 103.09521837 604.09980743 109.63763367 604.10648423 116.18018436 C604.11038533 119.64243643 604.11951377 123.104492 604.14140892 126.56668091 C604.16568866 130.43755699 604.1661845 134.3082432 604.16479492 138.17919922 C604.18097366 139.88931938 604.18097366 139.88931938 604.19747925 141.63398743 C604.16569885 149.82390105 603.18347958 156.79415353 597.4440918 163.14501953 C590.90861705 168.86195931 582.18634294 172.60460188 574.57421875 176.68701172 C572.43340793 177.84031269 570.29278671 178.99396567 568.15234375 180.14794922 C567.08564453 180.72254883 566.01894531 181.29714844 564.91992188 181.88916016 C561.24388322 183.87561259 557.57913051 185.88209465 553.91552734 187.89135742 C543.28123311 193.7214835 532.58199664 199.42403823 521.86669922 205.10327148 C510.10396156 211.33849 498.38187378 217.64498405 486.68652344 224.00585938 C464.44009719 236.10059845 442.14750913 248.10980629 419.82421875 260.06201172 C395.82548132 272.89814664 395.82548132 272.89814664 371.91259766 285.89306641 C361.34706114 291.68507718 350.72135038 297.35934492 340.07421875 302.99951172 C338.97339966 303.58327576 338.97339966 303.58327576 337.8503418 304.17883301 C308.73184015 319.61343531 308.73184015 319.61343531 296.82421875 317.56201172 C291.98777639 315.78338328 287.62616296 313.43967129 283.15820312 310.88916016 C279.62341024 308.87920889 276.04421697 306.9522188 272.47070312 305.01220703 C269.59971324 303.45087639 266.73534743 301.87784451 263.87109375 300.30419922 C260.22456123 298.31045956 256.55920232 296.3863245 252.82421875 294.56201172 C246.43677323 291.43180049 240.22659674 287.98986853 233.99072266 284.57104492 C226.41604098 280.42138747 218.81475959 276.32366719 211.19921875 272.24951172 C210.32118591 271.77969376 210.32118591 271.77969376 209.42541504 271.30038452 C205.82738161 269.37524089 202.22877877 267.4511638 198.63000488 265.52740479 C193.27713385 262.66570124 187.92532898 259.80200631 182.57421875 256.93701172 C181.99081726 256.62468597 181.40741577 256.31236023 180.80633545 255.99057007 C172.80007482 251.70343342 164.80657934 247.39346849 156.82421875 243.06201172 C148.06559077 238.31001359 139.29473556 233.58124888 130.51171875 228.87451172 C129.91462097 228.55453217 129.31752319 228.23455261 128.70233154 227.90487671 C121.46770954 224.02970482 114.2198821 220.18158523 106.94921875 216.37451172 C100.51497995 213.00514748 94.12924286 209.55569751 87.76171875 206.06201172 C78.36934986 200.91310158 68.91874916 195.879491 59.44921875 190.87451172 C58.73281219 190.49572876 58.01640564 190.1169458 57.27828979 189.72668457 C51.37909311 186.6078331 45.47883712 183.490987 39.57751465 180.37615967 C35.18373696 178.05702911 30.79124019 175.73550784 26.40057373 173.41049194 C25.03788804 172.68957317 23.67466446 171.96967001 22.31085205 171.25088501 C-4.49831354 157.12048718 -4.49831354 157.12048718 -8.52615738 146.11124611 C-9.88166458 140.79200566 -9.58993656 135.30546482 -9.56396484 129.84985352 C-9.56803589 128.47424403 -9.57338075 127.09863781 -9.57989502 125.72303772 C-9.59350479 122.00846998 -9.58829815 118.29415379 -9.57875776 114.57958198 C-9.5711358 110.68657768 -9.57821309 106.79359418 -9.58291626 102.90058899 C-9.5883632 96.36996611 -9.58120676 89.83944526 -9.56689453 83.30883789 C-9.5505358 75.7571609 -9.55588403 68.20572651 -9.57237375 60.6540553 C-9.58597819 54.16385847 -9.58791443 47.67373472 -9.58005774 41.18352824 C-9.57537986 37.30968132 -9.57476017 33.43594859 -9.58466721 29.56210899 C-9.59332071 25.92501992 -9.58734503 22.28824488 -9.56998444 18.6511898 C-9.56411532 16.67779346 -9.5730465 14.70437061 -9.58236694 12.73098755 C-9.57390747 11.56044327 -9.565448 10.38989899 -9.55673218 9.18388367 C-9.5556011 8.16463145 -9.55447002 7.14537924 -9.55330467 6.09524059 C-9.17578125 3.56201172 -9.17578125 3.56201172 -7.88634682 1.75141621 C-5.37661324 0.00632766 -2.99348324 -0.1114723 0 0 Z " fill="#3C5B89" transform="translate(471.17578125,505.43798828125)"/>
<path d="M0 0 C0.07017113 16.15978838 0.12302778 32.31952711 0.15543652 48.47943115 C0.17088637 55.98324689 0.19193972 63.4869678 0.22631836 70.99072266 C0.25627855 77.53320665 0.27558868 84.07562195 0.28226548 90.61817265 C0.28616658 94.08042471 0.29529502 97.54248028 0.31719017 101.00466919 C0.34146991 104.87554528 0.34196575 108.74623148 0.34057617 112.6171875 C0.35675491 114.32730766 0.35675491 114.32730766 0.3732605 116.07197571 C0.3414801 124.26188933 -0.64073917 131.23214181 -6.38012695 137.58300781 C-12.9156017 143.2999476 -21.63787581 147.04259016 -29.25 151.125 C-31.39081082 152.27830097 -33.53143204 153.43195395 -35.671875 154.5859375 C-36.73857422 155.16053711 -37.80527344 155.73513672 -38.90429688 156.32714844 C-42.58033553 158.31360087 -46.24508824 160.32008293 -49.90869141 162.3293457 C-60.54298564 168.15947178 -71.24222211 173.86202651 -81.95751953 179.54125977 C-93.72025719 185.77647828 -105.44234497 192.08297233 -117.13769531 198.44384766 C-139.38412156 210.53858673 -161.67670962 222.54779457 -184 234.5 C-207.99895167 247.33631198 -207.99895167 247.33631198 -231.91210938 260.33129883 C-242.51831943 266.14570323 -253.18597678 271.83973571 -263.875 277.5 C-264.61741943 277.89344604 -265.35983887 278.28689209 -266.12475586 278.69226074 C-268.26743691 279.82728526 -270.41089893 280.96081893 -272.5546875 282.09375 C-273.18724457 282.42872498 -273.81980164 282.76369995 -274.4715271 283.10882568 C-275.68958 283.7514685 -276.90954713 284.39049804 -278.13153076 285.02563477 C-279.46092164 285.7188826 -280.78427555 286.42376051 -282.10333252 287.13647461 C-282.80158142 287.50458252 -283.49983032 287.87269043 -284.21923828 288.25195312 C-284.84887482 288.58940552 -285.47851135 288.92685791 -286.12722778 289.27453613 C-289.28252041 290.49681547 -291.83520759 289.9042264 -295 289 C-296.26336009 286.47327983 -296.12867791 284.73160676 -296.13371277 281.90252686 C-296.13797775 280.82302261 -296.14224274 279.74351837 -296.14663696 278.63130188 C-296.14618378 277.44167343 -296.14573059 276.25204498 -296.14526367 275.02636719 C-296.14862228 273.77750229 -296.1519809 272.52863739 -296.15544128 271.2419281 C-296.16333063 267.80991641 -296.16661992 264.37796521 -296.16725707 260.9459486 C-296.16820587 258.08082765 -296.17188405 255.21571252 -296.17542917 252.35059381 C-296.18357875 245.58838116 -296.18601304 238.82618183 -296.18530273 232.06396484 C-296.18470258 225.09192113 -296.19524078 218.11995496 -296.2110464 211.14793086 C-296.2241335 205.16143071 -296.2294861 199.17495586 -296.22884732 193.18844151 C-296.22859257 189.61344128 -296.23143072 186.03850984 -296.24202538 182.46352386 C-296.25352849 178.47272228 -296.24895233 174.48202639 -296.24291992 170.49121094 C-296.24853943 169.30967941 -296.25415894 168.12814789 -296.25994873 166.91081238 C-296.22829396 158.67893783 -295.35369437 152.5582756 -290 146 C-285.58682181 142.14453114 -281.33091299 138.91880787 -275.4375 138.0625 C-261.83917768 136.0502872 -248.53428505 126.73734437 -236.56152344 120.359375 C-232.05296506 117.96672793 -227.52621035 115.60903567 -223 113.25 C-222.04947754 112.75419434 -221.09895508 112.25838867 -220.11962891 111.74755859 C-211.33805264 107.16985104 -202.54389592 102.61648182 -193.75 98.0625 C-187.48664401 94.81642281 -181.23506362 91.55003539 -175 88.25 C-165.99624941 83.4888491 -156.9348483 78.84064786 -147.875 74.1875 C-119.34438798 59.55668173 -119.34438798 59.55668173 -91.10107422 44.38183594 C-83.8319552 40.40153558 -76.45447246 36.67197883 -69.02734375 32.99682617 C-62.48299825 29.75549004 -56.00377938 26.41011386 -49.55200195 22.98876953 C-41.26619971 18.59785507 -32.93487961 14.29523957 -24.60083008 9.99682617 C-22.97310669 9.15535034 -22.97310669 9.15535034 -21.3125 8.296875 C-20.25804687 7.75353516 -19.20359375 7.21019531 -18.1171875 6.65039062 C-14.12651716 4.53753571 -10.2251075 2.27802418 -6.33984375 -0.02246094 C-3.62336567 -1.15735015 -2.73002303 -0.82632364 0 0 Z " fill="#283750" transform="translate(1075,531)"/>
<path d="M0 0 C6.54364973 3.04841714 12.82731085 6.57136391 19.09912109 10.13916016 C22.76791612 12.22443512 26.47071306 14.24112095 30.1809082 16.25146484 C32.84354486 17.69592956 35.49862742 19.1536993 38.15380859 20.61181641 C45.47073576 24.61165398 52.84333705 28.50608286 60.21240234 32.40869141 C70.13365904 37.66414268 80.03170779 42.95464377 89.87036133 48.36376953 C95.24046056 51.3091677 100.6364767 54.20080887 106.05224609 57.06103516 C106.73194458 57.42068863 107.41164307 57.7803421 108.11193848 58.15089417 C111.48027839 59.93320522 114.85102586 61.71060452 118.2265625 63.47924805 C119.46285758 64.1325671 120.69902874 64.7861207 121.93505859 65.43994141 C123.02568604 66.01292969 124.11631348 66.58591797 125.23999023 67.17626953 C132.04913414 71.1448679 136.05976529 75.65104113 139.21240234 82.90869141 C140.01547843 87.46608195 139.97416423 91.91054521 139.89355469 96.52832031 C139.89185857 97.86967899 139.89281941 99.21104322 139.89620972 100.55239868 C139.89791871 104.16376042 139.86285098 107.77390619 139.82076597 111.38498735 C139.78304585 115.16987333 139.77971698 118.9547927 139.77261353 122.73983765 C139.75402666 129.89379646 139.7048744 137.04719967 139.64451659 144.20091474 C139.57725829 152.35085233 139.54441414 160.50081762 139.51434398 168.65096402 C139.45176878 185.40386412 139.34635539 202.15620666 139.21240234 218.90869141 C135.44207394 219.76673369 133.66978707 220.0780465 130.24682617 218.16821289 C129.50550949 217.7651442 128.76419281 217.3620755 128.00041199 216.9467926 C127.21056412 216.49980515 126.42071625 216.05281769 125.60693359 215.59228516 C123.89346702 214.6561946 122.1794203 213.72116532 120.46484375 212.78710938 C119.1536557 212.06500275 119.1536557 212.06500275 117.815979 211.32830811 C113.82137838 209.15022676 109.77548378 207.07637052 105.72412109 205.00634766 C104.93268707 204.60022247 104.14125305 204.19409729 103.32583618 203.77566528 C100.85132559 202.50593842 98.37570316 201.23840043 95.89990234 199.97119141 C95.03220215 199.52658569 94.16450195 199.08197998 93.27050781 198.62390137 C78.6083785 191.11365659 63.89600122 183.7073368 49.13696289 176.3894043 C41.28808857 172.49133141 33.486733 168.52511803 25.77209473 164.36639404 C19.05117561 160.76288442 12.21443954 157.38890001 5.38786697 153.99162292 C2.54783261 152.5778731 -0.29063732 151.16099911 -3.12909412 149.74408531 C-5.31936705 148.65077489 -7.50986128 147.55790885 -9.70039368 146.46511841 C-15.41591509 143.61353736 -21.13039549 140.75987206 -26.84477711 137.90600777 C-31.15013737 135.75593361 -35.45587124 133.60661463 -39.76245117 131.45898438 C-73.17522625 114.79533359 -73.17522625 114.79533359 -85.25112915 108.35656738 C-95.55302215 102.87591659 -106.03032023 97.73486879 -116.47509766 92.53369141 C-118.63339596 91.45705927 -120.79159954 90.38023722 -122.94970703 89.30322266 C-126.89077667 87.33672292 -130.83237476 85.37129178 -134.7746582 83.40722656 C-139.11428328 81.2449892 -143.45153464 79.07806277 -147.78759766 76.90869141 C-149.52009766 76.04244141 -149.52009766 76.04244141 -151.28759766 75.15869141 C-152.11259766 74.74619141 -152.93759766 74.33369141 -153.78759766 73.90869141 C-150.27952584 70.9597955 -146.74808621 68.63581705 -142.72900391 66.43994141 C-142.15254623 66.12327515 -141.57608856 65.80660889 -140.98216248 65.48034668 C-139.1072786 64.45187262 -137.22875467 63.4302543 -135.35009766 62.40869141 C-134.03280915 61.68775956 -132.71575436 60.9664005 -131.39892578 60.24462891 C-128.1254247 58.45188628 -124.8489656 56.66464179 -121.57110596 54.87988281 C-119.04737614 53.50561126 -116.52496094 52.12893292 -114.00244141 50.75244141 C-111.39359092 49.32936621 -108.78439358 47.90694794 -106.17407227 46.48657227 C-99.19564262 42.68692908 -92.2382772 38.84969965 -85.28421021 35.0057373 C-74.69325257 29.15151722 -64.08453091 23.333303 -53.43530273 17.58544922 C-48.47600392 14.90856213 -43.52382682 12.21989568 -38.58447266 9.50634766 C-37.57956787 8.95495117 -36.57466309 8.40355469 -35.53930664 7.83544922 C-33.63388458 6.78896275 -31.72967213 5.74026962 -29.8269043 4.68896484 C-28.97475342 4.22135742 -28.12260254 3.75375 -27.24462891 3.27197266 C-26.13051636 2.65769409 -26.13051636 2.65769409 -24.99389648 2.03100586 C-16.81743669 -2.12824895 -8.66089421 -3.39062858 0 0 Z " fill="#2A3A52" transform="translate(935.78759765625,253.09130859375)"/>
<path d="M0 0 C-0.05909161 31.38128894 -0.13339942 62.76249683 -0.22898628 94.14369411 C-0.24025461 97.84750472 -0.25139304 101.55131571 -0.26245117 105.25512695 C-0.26465486 105.99249725 -0.26685854 106.72986755 -0.269129 107.4895824 C-0.30451318 119.43310122 -0.32937098 131.37661997 -0.35034702 143.3201718 C-0.37210016 155.5729624 -0.40514592 167.82568491 -0.44870156 180.0784176 C-0.47522672 187.64062247 -0.4929157 195.20274247 -0.49934604 202.76499156 C-0.50521757 208.56116513 -0.5267913 214.35719761 -0.55427551 220.15330505 C-0.56308811 222.53293836 -0.5667717 224.91259689 -0.56500816 227.29224586 C-0.56336308 230.53560661 -0.57998982 233.77837282 -0.60127258 237.02165222 C-0.59400122 238.44140225 -0.59400122 238.44140225 -0.58658296 239.88983411 C-0.63933921 244.74537379 -0.82343262 248.06406181 -4 252 C-6.85005722 254.21671117 -9.94953673 254.4699926 -13.51293945 254.42700195 C-19.07725958 253.47166712 -23.89431081 250.18964213 -28.75 247.4375 C-29.98493354 246.75431512 -31.22087587 246.0729509 -32.45776367 245.39331055 C-35.02776135 243.97924501 -37.59324649 242.55746021 -40.15576172 241.12988281 C-46.17018474 237.78720888 -52.24327127 234.55420201 -58.3125 231.3125 C-59.47442871 230.68939941 -60.63635742 230.06629883 -61.83349609 229.42431641 C-70.09979509 224.99556861 -78.40596914 220.64822452 -86.73120117 216.33154297 C-92.91092021 213.11763897 -99.02772521 209.80467759 -105.125 206.4375 C-115.94657831 200.47062155 -126.948085 194.86705306 -137.95239258 189.24768066 C-148.10040713 184.06300469 -158.18737424 178.80168744 -168.16015625 173.28515625 C-175.20929406 169.39672584 -182.34350259 165.68657435 -189.5 162 C-200.59853855 156.27759824 -211.6050333 150.41006259 -222.53125 144.36523438 C-224.95544895 143.02463701 -227.38386667 141.69191721 -229.8125 140.359375 C-231.27120065 139.55274723 -232.72955616 138.74549486 -234.1875 137.9375 C-235.16819458 137.40032349 -235.16819458 137.40032349 -236.16870117 136.85229492 C-239.18963202 135.16413966 -241.62710249 133.50632053 -244 131 C-243.34008057 130.78230957 -242.68016113 130.56461914 -242.00024414 130.34033203 C-234.72578996 127.8326051 -228.14924032 124.61603315 -221.4375 120.875 C-220.39029785 120.29951416 -219.3430957 119.72402832 -218.26416016 119.13110352 C-215.17148661 117.42892886 -212.08489363 115.71622556 -209 114 C-207.40501433 113.11576561 -205.80996852 112.23163969 -204.21484375 111.34765625 C-202.04342443 110.1427068 -199.87285527 108.93630366 -197.70410156 107.7265625 C-192.05100843 104.57392437 -186.37319473 101.46839992 -180.6875 98.375 C-171.31758195 93.27634333 -161.97382302 88.13119248 -152.63787842 82.97070312 C-143.52308837 77.9327537 -134.39313976 72.92377401 -125.2265625 67.98046875 C-121.11823829 65.75322144 -117.07054907 63.46217681 -113.07421875 61.0390625 C-108.76312312 58.42872422 -104.38069632 55.98891229 -99.94677734 53.59423828 C-96.76269832 51.87161723 -93.59337432 50.12383775 -90.42578125 48.37109375 C-89.27553467 47.73502197 -88.12528809 47.0989502 -86.94018555 46.44360352 C-86.34861664 46.11643341 -85.75704773 45.78926331 -85.14755249 45.45217896 C-75.18508406 39.94350435 -65.2059124 34.46903128 -55.1875 29.0625 C-48.10102776 25.23777971 -41.04417098 21.37165137 -34.04101562 17.39648438 C-27.16621984 13.5038732 -20.21892669 9.744249 -13.27099609 5.98413086 C-12.37074707 5.49565674 -11.47049805 5.00718262 -10.54296875 4.50390625 C-9.73883545 4.06892822 -8.93470215 3.6339502 -8.10620117 3.18579102 C-2.4476014 0 -2.4476014 0 0 0 Z " fill="#26344D" transform="translate(751,344)"/>
<path d="M0 0 C1.134375 0.020625 2.26875 0.04125 3.4375 0.0625 C3.4375 0.3925 3.4375 0.7225 3.4375 1.0625 C2.509375 1.330625 1.58125 1.59875 0.625 1.875 C-2.32490366 2.97398371 -3.61865186 3.68668561 -5.5625 6.0625 C-4.48849278 0.07874549 -4.48849278 0.07874549 0 0 Z " fill="#30507F" transform="translate(468.5625,505.9375)"/>
</svg>
