<svg version="1.1" xmlns="http://www.w3.org/2000/svg" viewBox="0 0 1536 1024">
<path d="M0 0 C1.00933594 -0.0103125 2.01867187 -0.020625 3.05859375 -0.03125 C13.53385652 1.55697267 22.96696467 7.7360479 32.1875 12.6875 C33.69195233 13.49049203 35.19667748 14.29297309 36.70166016 15.0949707 C39.80046119 16.74707757 42.89783828 18.40180893 45.99414062 20.05859375 C50.29855259 22.36071028 54.60893597 24.65140593 58.921875 26.9375 C76.16139026 36.07668293 93.37297388 45.26711068 110.5625 54.5 C111.67882812 55.09941406 112.79515625 55.69882813 113.9453125 56.31640625 C117.2766071 58.1057211 120.60714518 59.89643671 123.9375 61.6875 C125.00218506 62.25927979 126.06687012 62.83105957 127.16381836 63.42016602 C132.35837785 66.21490211 137.53776587 69.03276896 142.69140625 71.90234375 C143.67125488 72.44544189 144.65110352 72.98854004 145.66064453 73.5480957 C147.47666392 74.55666572 149.28920802 75.57153535 151.09716797 76.59448242 C156.20991769 79.42927931 161.27930474 81.54140569 166.79663086 83.45849609 C171.52773475 85.24002043 175.92426671 87.61705597 180.375 90 C181.37217041 90.52698486 182.36934082 91.05396973 183.39672852 91.59692383 C190.85156451 95.54982724 198.26096228 99.58570952 205.6574707 103.64648438 C213.91890099 108.17425093 222.23741729 112.59085382 230.5625 117 C240.48372553 122.25551195 250.3818041 127.54595162 260.22045898 132.95507812 C265.59055822 135.9004763 270.98657435 138.79211747 276.40234375 141.65234375 C277.42189148 142.19182396 277.42189148 142.19182396 278.46203613 142.74220276 C281.83037605 144.52451381 285.20112351 146.30191312 288.57666016 148.07055664 C289.81295523 148.7238757 291.0491264 149.3774293 292.28515625 150.03125 C293.37578369 150.60423828 294.46641113 151.17722656 295.59008789 151.76757812 C302.3992318 155.7361765 306.40986295 160.24234972 309.5625 167.5 C310.36557608 172.05739055 310.32426188 176.5018538 310.24365234 181.11962891 C310.24195622 182.46098758 310.24291707 183.80235181 310.24630737 185.14370728 C310.24801636 188.75506902 310.21294864 192.36521478 310.17086363 195.97629595 C310.1331435 199.76118192 310.12981464 203.5461013 310.12271118 207.33114624 C310.10412432 214.48510505 310.05497206 221.63850826 309.99461424 228.79222333 C309.92735594 236.94216092 309.8945118 245.09212621 309.86444163 253.24227262 C309.80186643 269.99517271 309.69645305 286.74751526 309.5625 303.5 C305.7921716 304.35804228 304.01988472 304.66935509 300.59692383 302.75952148 C299.85560715 302.35645279 299.11429047 301.95338409 298.35050964 301.5381012 C297.16573784 300.86762001 297.16573784 300.86762001 295.95703125 300.18359375 C294.24356467 299.2475032 292.52951795 298.31247391 290.81494141 297.37841797 C289.50375336 296.65631134 289.50375336 296.65631134 288.16607666 295.9196167 C284.17147604 293.74153535 280.12558144 291.66767912 276.07421875 289.59765625 C275.28278473 289.19153107 274.49135071 288.78540588 273.67593384 288.36697388 C271.20142325 287.09724701 268.72580081 285.82970903 266.25 284.5625 C265.3822998 284.11789429 264.51459961 283.67328857 263.62060547 283.21520996 C248.95847616 275.70496519 234.24609888 268.2986454 219.48706055 260.98071289 C211.63818623 257.08264 203.83683066 253.11642663 196.12219238 248.95770264 C189.40127326 245.35419301 182.56453719 241.9802086 175.73796463 238.58293152 C172.89793026 237.1691817 170.05946034 235.75230771 167.22100353 234.33539391 C165.0307306 233.24208348 162.84023638 232.14921745 160.64970398 231.056427 C154.93418257 228.20484595 149.21970217 225.35118065 143.50532055 222.49731636 C139.19996029 220.34724221 134.89422642 218.19792323 130.58764648 216.05029297 C97.1748714 199.38664219 97.1748714 199.38664219 85.09896851 192.94787598 C74.7970755 187.46722519 64.31977742 182.32617739 53.875 177.125 C51.7167017 176.04836786 49.55849812 174.97154581 47.40039062 173.89453125 C42.60091102 171.49970542 37.80100583 169.10574355 32.99868774 166.71661377 C31.40724799 165.92186077 29.81808232 165.12253313 28.23153687 164.3180542 C20.47894333 160.39228547 14.23657683 159.55308739 5.5625 160.5 C-2.65177062 163.27220005 -7.9143838 166.92101134 -12.125 174.5625 C-13.83867629 178.39787074 -14.56184604 181.55235063 -14.56778526 185.74201107 C-14.57322178 187.00857962 -14.57322178 187.00857962 -14.57876813 188.30073541 C-14.57769988 189.22339199 -14.57663163 190.14604856 -14.57553101 191.09666443 C-14.57835229 192.08069042 -14.58117357 193.06471641 -14.58408034 194.07856137 C-14.59243179 197.38498308 -14.59376505 200.69137133 -14.59521484 203.99780273 C-14.59988257 206.36463516 -14.60502606 208.73146668 -14.61061096 211.09829712 C-14.62189547 216.19963433 -14.63032786 221.30096569 -14.63673019 226.40231133 C-14.64705973 234.46501212 -14.66762357 242.52767177 -14.68984985 250.59034729 C-14.6973293 253.34907804 -14.70474305 256.10780897 -14.71213722 258.86653996 C-14.71491307 259.9006568 -14.71491307 259.9006568 -14.717745 260.95566488 C-14.73866791 268.80157533 -14.75749887 276.6474903 -14.77539062 284.4934082 C-14.77702881 285.2105728 -14.77866699 285.92773741 -14.78035481 286.66663427 C-14.80664985 298.2930432 -14.82528854 309.9194553 -14.84198253 321.54588138 C-14.85939865 333.48239055 -14.88823733 345.41883734 -14.9268719 357.35529667 C-14.94817592 364.05734342 -14.96382664 370.75931055 -14.96567917 377.46139336 C-14.96782097 383.76263866 -14.9836426 390.0636984 -15.01006889 396.36488724 C-15.01728058 398.68002488 -15.01935386 400.99518495 -15.01596642 403.31033134 C-15.01208613 406.4658929 -15.02647991 409.62085756 -15.04550171 412.77635193 C-15.03997201 413.69677778 -15.03444232 414.61720363 -15.02874506 415.56552118 C-15.07888012 420.36919725 -15.31253863 423.59756931 -18.4375 427.5 C-21.28755722 429.71671117 -24.38703673 429.9699926 -27.95043945 429.92700195 C-33.51475958 428.97166712 -38.33181081 425.68964213 -43.1875 422.9375 C-44.42243354 422.25431512 -45.65837587 421.5729509 -46.89526367 420.89331055 C-49.46526135 419.47924501 -52.03074649 418.05746021 -54.59326172 416.62988281 C-60.60768474 413.28720888 -66.68077127 410.05420201 -72.75 406.8125 C-73.91192871 406.18939941 -75.07385742 405.56629883 -76.27099609 404.92431641 C-84.53729509 400.49556861 -92.84346914 396.14822452 -101.16870117 391.83154297 C-107.34842021 388.61763897 -113.46522521 385.30467759 -119.5625 381.9375 C-130.38407831 375.97062155 -141.385585 370.36705306 -152.38989258 364.74768066 C-162.53790713 359.56300469 -172.62487424 354.30168744 -182.59765625 348.78515625 C-189.64679406 344.89672584 -196.78100259 341.18657435 -203.9375 337.5 C-212.3805986 333.14674195 -220.78779643 328.74065914 -229.125 324.1875 C-230.02138184 323.69830078 -230.91776367 323.20910156 -231.84130859 322.70507812 C-235.89901297 320.47932675 -239.93504198 318.22501918 -243.93359375 315.89453125 C-244.98703979 315.28508667 -244.98703979 315.28508667 -246.06176758 314.66333008 C-247.31884477 313.9323999 -248.57085372 313.19260851 -249.81518555 312.44018555 C-253.42918918 310.33811602 -256.97553823 308.95179492 -260.96875 307.703125 C-267.78302959 305.51727199 -274.06335504 302.50024307 -280.40332031 299.22900391 C-282.3216881 298.24528846 -284.25361807 297.29262245 -286.1875 296.33984375 C-294.23346209 292.27397544 -300.48954708 288.34385876 -303.4375 279.5 C-303.53257598 277.99305409 -303.57237407 276.482283 -303.57794189 274.97235107 C-303.58650711 273.58038261 -303.58650711 273.58038261 -303.59524536 272.16029358 C-303.59636322 271.14414474 -303.59748108 270.12799591 -303.59863281 269.08105469 C-303.60359772 268.00921432 -303.60856262 266.93737396 -303.61367798 265.83305359 C-303.62830912 262.27932091 -303.63510356 258.72563288 -303.640625 255.171875 C-303.6463761 252.70428465 -303.65213384 250.23669432 -303.65789795 247.769104 C-303.66841094 242.59069612 -303.67425152 237.41230378 -303.67773438 232.23388672 C-303.6832167 225.60159839 -303.70723811 218.96951561 -303.73570633 212.33729172 C-303.75434035 207.23803103 -303.75953875 202.13881975 -303.76107025 197.03952789 C-303.76409606 194.59472786 -303.77212215 192.14992868 -303.78525543 189.70516205 C-303.80232979 186.28212407 -303.80043187 182.85958685 -303.79394531 179.43652344 C-303.8031601 178.42847153 -303.81237488 177.42041962 -303.8218689 176.38182068 C-303.7718021 167.93786905 -301.68211145 161.87974403 -295.88720703 155.58007812 C-290.40477445 150.92487326 -283.76223071 147.96944043 -277.375 144.75 C-275.82664807 143.95317141 -274.27929203 143.15440486 -272.73291016 142.35375977 C-269.67931056 140.773617 -266.62244898 139.20010856 -263.56298828 137.63134766 C-258.42952217 134.99018161 -253.36447156 132.23086786 -248.3125 129.4375 C-238.792188 124.20494812 -229.20239736 119.10787139 -219.60394287 114.02072144 C-210.53127755 109.2119028 -201.47267752 104.37905234 -192.4375 99.5 C-182.83306683 94.31498178 -173.20436074 89.17743506 -163.5625 84.0625 C-149.98359874 76.85859945 -136.42697904 69.6143981 -122.88183594 62.34716797 C-119.38299604 60.47076999 -115.88312662 58.59630203 -112.3828125 56.72265625 C-83.42606301 41.22884438 -83.42606301 41.22884438 -54.5625 25.5625 C-46.54936395 21.18500168 -38.52529828 16.82801435 -30.48455811 12.50143433 C-29.26344319 11.84382304 -28.04292338 11.18510528 -26.82305908 10.525177 C-7.2231421 -0.07361164 -7.2231421 -0.07361164 0 0 Z " fill="#405F8C" transform="translate(765.4375,168.5)"/>
<path d="M0 0 C6.4133196 1.27623286 12.12952517 4.90376697 17.82421875 7.99951172 C19.27801128 8.77182039 20.73286691 9.54213088 22.1887207 10.31054688 C25.21807033 11.91151496 28.2426535 13.52100045 31.26416016 15.13671875 C37.7803015 18.61295488 44.34851956 21.9876147 50.91815186 25.36132812 C53.00847791 26.43534656 55.09741552 27.5120229 57.18603516 28.58935547 C65.87661963 33.06890071 74.60190948 37.47295892 83.35961914 41.82006836 C89.70129969 44.97617173 95.9682145 48.25743846 102.22216797 51.58325195 C110.46155024 55.94161752 118.8095875 60.08255108 127.16455078 64.21362305 C133.76848719 67.4905435 140.31063221 70.85985114 146.82421875 74.31201172 C157.40047928 79.91120847 168.1056187 85.24180349 178.82421875 90.56201172 C190.20850902 96.21263721 201.55603067 101.90732821 212.78417969 107.86303711 C221.71776641 112.58878856 230.77052699 117.07199798 239.82421875 121.56201172 C250.6114779 126.91175667 261.35025719 132.32778761 271.99098206 137.96417236 C279.35855955 141.86131927 286.79676552 145.60569848 294.26171875 149.31201172 C296.1435856 150.24916434 298.02515724 151.18690666 299.90660095 152.12490845 C301.12719175 152.73248239 302.34850079 153.33861585 303.5705719 153.94320679 C306.45818974 155.3730272 309.32939268 156.82599234 312.18530273 158.31835938 C313.22887939 158.86024902 314.27245605 159.40213867 315.34765625 159.96044922 C316.25821777 160.44175293 317.1687793 160.92305664 318.10693359 161.41894531 C324.73038279 164.20519771 331.17112116 163.74164154 337.7578125 161.10888672 C342.22415043 159.13802482 346.52031243 156.86102742 350.82421875 154.56201172 C352.3233761 153.78174472 353.82338273 153.0031074 355.32421875 152.22607422 C358.48138041 150.58327424 361.6284935 148.92292774 364.76953125 147.24951172 C370.10552142 144.40699443 375.46285866 141.60632279 380.82421875 138.81201172 C381.77474121 138.31620605 382.72526367 137.82040039 383.70458984 137.30957031 C392.48616611 132.73186276 401.28032283 128.17849353 410.07421875 123.62451172 C416.33757474 120.37843453 422.58915513 117.11204711 428.82421875 113.81201172 C437.82796934 109.05086082 446.88937045 104.40265958 455.94921875 99.74951172 C484.47983077 85.11869345 484.47983077 85.11869345 512.72314453 69.94384766 C519.99226355 65.9635473 527.36974629 62.23399055 534.796875 58.55883789 C541.3412205 55.31750176 547.82043937 51.97212558 554.2722168 48.55078125 C562.55801904 44.15986679 570.88933914 39.85725128 579.22338867 35.55883789 C580.3085376 34.997854 581.39368652 34.43687012 582.51171875 33.85888672 C583.56617188 33.31554687 584.620625 32.77220703 585.70703125 32.21240234 C589.69770159 30.09954743 593.59911125 27.8400359 597.484375 25.53955078 C600.20085308 24.40466157 601.09419572 24.73568807 603.82421875 25.56201172 C603.89438988 41.72180009 603.94724653 57.88153883 603.97965527 74.04144287 C603.99510512 81.54525861 604.01615847 89.04897952 604.05053711 96.55273438 C604.0804973 103.09521837 604.09980743 109.63763367 604.10648423 116.18018436 C604.11038533 119.64243643 604.11951377 123.104492 604.14140892 126.56668091 C604.16568866 130.43755699 604.1661845 134.3082432 604.16479492 138.17919922 C604.18097366 139.88931938 604.18097366 139.88931938 604.19747925 141.63398743 C604.16569885 149.82390105 603.18347958 156.79415353 597.4440918 163.14501953 C590.90861705 168.86195931 582.18634294 172.60460188 574.57421875 176.68701172 C572.43340793 177.84031269 570.29278671 178.99396567 568.15234375 180.14794922 C567.08564453 180.72254883 566.01894531 181.29714844 564.91992188 181.88916016 C561.24388322 183.87561259 557.57913051 185.88209465 553.91552734 187.89135742 C543.28123311 193.7214835 532.58199664 199.42403823 521.86669922 205.10327148 C510.10396156 211.33849 498.38187378 217.64498405 486.68652344 224.00585938 C464.44009719 236.10059845 442.14750913 248.10980629 419.82421875 260.06201172 C395.82548132 272.89814664 395.82548132 272.89814664 371.91259766 285.89306641 C361.34706114 291.68507718 350.72135038 297.35934492 340.07421875 302.99951172 C338.97339966 303.58327576 338.97339966 303.58327576 337.8503418 304.17883301 C308.73184015 319.61343531 308.73184015 319.61343531 296.82421875 317.56201172 C291.98777639 315.78338328 287.62616296 313.43967129 283.15820312 310.88916016 C279.62341024 308.87920889 276.04421697 306.9522188 272.47070312 305.01220703 C269.59971324 303.45087639 266.73534743 301.87784451 263.87109375 300.30419922 C260.22456123 298.31045956 256.55920232 296.3863245 252.82421875 294.56201172 C246.43677323 291.43180049 240.22659674 287.98986853 233.99072266 284.57104492 C226.41604098 280.42138747 218.81475959 276.32366719 211.19921875 272.24951172 C210.32118591 271.77969376 210.32118591 271.77969376 209.42541504 271.30038452 C205.82738161 269.37524089 202.22877877 267.4511638 198.63000488 265.52740479 C193.27713385 262.66570124 187.92532898 259.80200631 182.57421875 256.93701172 C181.99081726 256.62468597 181.40741577 256.31236023 180.80633545 255.99057007 C172.80007482 251.70343342 164.80657934 247.39346849 156.82421875 243.06201172 C148.06559077 238.31001359 139.29473556 233.58124888 130.51171875 228.87451172 C129.91462097 228.55453217 129.31752319 228.23455261 128.70233154 227.90487671 C121.46770954 224.02970482 114.2198821 220.18158523 106.94921875 216.37451172 C100.51497995 213.00514748 94.12924286 209.55569751 87.76171875 206.06201172 C78.36934986 200.91310158 68.91874916 195.879491 59.44921875 190.87451172 C58.73281219 190.49572876 58.01640564 190.1169458 57.27828979 189.72668457 C51.37909311 186.6078331 45.47883712 183.490987 39.57751465 180.37615967 C35.18373696 178.05702911 30.79124019 175.73550784 26.40057373 173.41049194 C25.03788804 172.68957317 23.67466446 171.96967001 22.31085205 171.25088501 C-4.49831354 157.12048718 -4.49831354 157.12048718 -8.52615738 146.11124611 C-9.88166458 140.79200566 -9.58993656 135.30546482 -9.56396484 129.84985352 C-9.56803589 128.47424403 -9.57338075 127.09863781 -9.57989502 125.72303772 C-9.59350479 122.00846998 -9.58829815 118.29415379 -9.57875776 114.57958198 C-9.5711358 110.68657768 -9.57821309 106.79359418 -9.58291626 102.90058899 C-9.5883632 96.36996611 -9.58120676 89.83944526 -9.56689453 83.30883789 C-9.5505358 75.7571609 -9.55588403 68.20572651 -9.57237375 60.6540553 C-9.58597819 54.16385847 -9.58791443 47.67373472 -9.58005774 41.18352824 C-9.57537986 37.30968132 -9.57476017 33.43594859 -9.58466721 29.56210899 C-9.59332071 25.92501992 -9.58734503 22.28824488 -9.56998444 18.6511898 C-9.56411532 16.67779346 -9.5730465 14.70437061 -9.58236694 12.73098755 C-9.57390747 11.56044327 -9.565448 10.38989899 -9.55673218 9.18388367 C-9.5556011 8.16463145 -9.55447002 7.14537924 -9.55330467 6.09524059 C-9.17578125 3.56201172 -9.17578125 3.56201172 -7.88634682 1.75141621 C-5.37661324 0.00632766 -2.99348324 -0.1114723 0 0 Z " fill="#3C5B89" transform="translate(471.17578125,505.43798828125)"/>
<path d="M0 0 C6.04308888 2.54118627 11.61313604 5.83632652 17.25 9.125 C18.42556641 9.81328125 19.60113281 10.5015625 20.8125 11.2109375 C29.49858 16.30109553 38.12096095 21.4953765 46.7421875 26.7109375 C56.33161063 32.50879412 65.9655054 38.22815847 75.60546875 43.9375 C88.81291306 51.7486393 101.94666048 59.68403795 114.97851562 67.79296875 C128.21696685 76.02988606 141.52899614 84.14140295 154.87548828 92.20727539 C162.30200127 95.58339844 169.80200127 98.08339844 177.30200127 100.58339844 C189.5 103.5 189.5 103.5 201.8125 113.9296875 C236.53227539 134.77722168 236.53227539 134.77722168 271.06396484 155.5 C291.66870667 167.84741 312.25006896 180.23320605 332.79638672 192.67041016 C334.30096374 193.58136261 335.80519406 194.49287348 337.30914307 195.40483093 C340.37152091 197.26024987 343.43581168 199.11261219 346.50146484 200.96264648 C353.83106437 205.38946299 361.15276232 209.83007296 368.47192383 214.27368164 C379.19118879 220.78614458 389.93108553 227.26063009 400.67407227 233.73022461 C401.9379165 234.49142639 403.20182068 235.25252271 404.46574402 236.01355743 C409.05847251 238.77879766 413.64981817 241.54644588 418.24145508 244.31359863 C420.98989768 245.97048608 423.73804134 247.62786102 426.48602295 249.28546143 C431.74949817 252.46021054 437.01451098 255.6323972 442.28125 258.80078125 C443.57694092 259.58020874 444.87263184 260.35963623 446.20678711 261.16308594 C447.24619629 261.78873047 448.28560547 262.414375 449.35546875 263.05859375 C465.69892765 273.00261392 465.69892765 273.00261392 471.05859375 282.36328125 C472.45416 286.67377802 472.84115127 290.52668048 473.05859375 295.05078125 C473.07206856 305.1115222 469.15124497 313.01989131 462.18408203 320.35400391 C460.36108398 321.87670898 460.36108398 321.87670898 458.5 323.4375 C455.1421875 326.0703125 455.1421875 326.0703125 451.7421875 328.7421875 C450.14261475 329.98200195 450.14261475 329.98200195 448.51074219 331.2480957 C441.72003657 336.52069287 434.8905877 341.71827698 427.97802734 346.8355957 C426.91785401 347.61853455 425.85768067 348.40147339 424.7659607 349.20831299 C419.35755626 353.21878839 413.93396766 357.2074379 408.48730469 361.16650391 C405.0866893 363.63849217 401.71458299 366.13870135 398.36376953 368.67724609 C396.97419128 369.72786484 395.58318091 370.77665073 394.19116211 371.82421875 C392.89395203 372.79989807 391.59832397 373.77768188 390.30468750 374.75756836 C385.63018213 378.17728076 381.07890068 380.62888855 375.80468750 382.87756836 C363.54860839 386.85116976 353.01618037 385.25695889 341.05468750 381.37756836 C336.27116424 379.03139296 331.86668855 376.38810618 327.36328125 373.52734375 C325.74890625 372.50898437 324.13453125 371.490625 322.47265625 370.44140625 C319.18234375 378.41796875 319.18234375 378.41796875 315.89453125 386.37890625 C306.12478003 388.4671879 296.31628987 390.17979779 286.41796875 391.52734375 C282.2421875 392.0703125 282.2421875 392.0703125 278.0546875 392.62890625 C275.27199219 393.01628906 272.48929688 393.40367188 269.62890625 393.80078125 C268.30421875 393.99609375 266.97953125 394.19140625 265.6171875 394.39257812 C264.40324463 394.57540283 263.18930176 394.75822754 261.9387207 394.94628906 C259.80468750 395.37756836 259.80468750 395.37756836 255.80468750 395.37756836 C254.47468750 394.38756836 254.47468750 394.38756836 253.11669922 393.37524414 C251.11645508 391.87463379 251.11645508 391.87463379 249.07910156 390.33935547 C246.01411133 388.00122070 242.96801758 385.63623047 239.92822266 383.26440430 C224.36883553 371.07596855 208.62287287 359.12899949 192.85888672 347.20239258 C179.94949813 337.42655899 167.08952461 327.59058268 154.30468750 317.64819336 C138.73127197 305.54376892 123.05893052 293.57693037 107.36669922 281.62524414 C94.67691399 271.98111406 81.98718668 262.33621997 69.38623047 252.57788086 C54.10917606 240.75396679 38.80149927 228.96890929 23.43310547 217.26342773 C22.29168152 216.39398560 21.15025757 215.52454346 19.97412109 214.62902832 C11.88596891 208.45862011 3.82201116 202.25753413 -4.21655273 196.02392578 C-5.42671143 195.08461914 -6.63687012 194.1453125 -7.88305664 193.17773438 C-10.19531250 191.37756836 -10.19531250 191.37756836 -12.19531250 189.37756836 C-15.74389568 185.28929063 -17.27600188 180.86108629 -18.69531250 175.75256836 C-19.32023728 172.08287355 -19.44766037 168.48555477 -19.44531250 164.75256836 C-19.46177734 163.42066699 -19.47824219 162.08876562 -19.49511719 160.71582031 C-19.47591797 159.23234180 -19.47591797 159.23234180 -19.45634556 157.71752930 C-19.43795013 156.10177856 -19.42027986 154.48602240 -19.40332031 152.87023926 C-19.36999451 149.23814437 -19.32839124 145.60616666 -19.28515625 141.97412109 C-19.23552681 137.62785200 -19.20040295 133.28155813 -19.16699219 128.93505859 C-19.09098102 119.69618403 -18.99054498 110.45769447 -18.87524414 101.21911621 C-18.76556912 92.40012313 -18.68381073 83.58118308 -18.61498451 74.76193190 C-18.55707954 67.25227451 -18.48346866 59.74285866 -18.39770508 52.23352051 C-18.31904792 45.37429600 -18.25577765 38.51495802 -18.20312500 31.65551758 C-18.16813660 27.11316612 -18.11860076 22.57091810 -18.06289673 18.02870178 C-18.04012218 15.94817680 -18.02279541 13.86758971 -18.01104736 11.78685760 C-17.99430344 10.31206097 -17.97217529 8.83731171 -17.94531250 7.36256836 C-17.38969326 2.19689044 -17.38969326 2.19689044 -15.19531250 0.37756836 C-10.19531250 -1.12243164 -5.19531250 -1.12243164 0 0 Z " fill="#445F89" transform="translate(461.1953125,3.62243164)"/>
</svg>